<?xml version="1.0" encoding="UTF-8"?> <svg xmlns="http://www.w3.org/2000/svg" xmlns:xlink="http://www.w3.org/1999/xlink" id="Layer_1" data-name="Layer 1" viewBox="0 0 785.07 100.19"><defs><linearGradient id="linear-gradient" x1="62.54" y1="63.15" x2="127.47" y2="-4.95" gradientUnits="userSpaceOnUse"><stop offset="0" stop-color="#a79028"></stop><stop offset="1" stop-color="#d2b622"></stop></linearGradient><linearGradient id="linear-gradient-2" x1="98.22" y1="89.56" x2="116.26" y2="60.71" xlink:href="#linear-gradient"></linearGradient><linearGradient id="linear-gradient-3" x1="76.45" y1="70.27" x2="107.96" y2="51.71" xlink:href="#linear-gradient"></linearGradient><linearGradient id="linear-gradient-4" x1="138.73" y1="91.67" x2="144.71" y2="70.33" xlink:href="#linear-gradient"></linearGradient><linearGradient id="linear-gradient-5" x1="103.15" y1="56.89" x2="141.91" y2="5.55" xlink:href="#linear-gradient"></linearGradient><linearGradient id="linear-gradient-6" x1="148.52" y1="24.58" x2="148.58" y2="0.08" xlink:href="#linear-gradient"></linearGradient><linearGradient id="linear-gradient-7" x1="144.21" y1="24.24" x2="144.15" y2="0.17" xlink:href="#linear-gradient"></linearGradient><linearGradient id="linear-gradient-8" x1="128.66" y1="48.31" x2="145.97" y2="36.3" xlink:href="#linear-gradient"></linearGradient><linearGradient id="linear-gradient-9" x1="160.14" y1="10.22" x2="161" y2="-2.6" xlink:href="#linear-gradient"></linearGradient><linearGradient id="linear-gradient-10" x1="161.42" y1="19.59" x2="161.42" y2="1.31" xlink:href="#linear-gradient"></linearGradient><linearGradient id="linear-gradient-11" x1="173.3" y1="42.91" x2="173.3" y2="16.67" xlink:href="#linear-gradient"></linearGradient><linearGradient id="linear-gradient-12" x1="154.91" y1="27.53" x2="155.08" y2="3.68" xlink:href="#linear-gradient"></linearGradient><linearGradient id="linear-gradient-13" x1="153.05" y1="47.56" x2="162.14" y2="26.95" xlink:href="#linear-gradient"></linearGradient><linearGradient id="linear-gradient-14" x1="175.49" y1="50.21" x2="175.55" y2="40.48" xlink:href="#linear-gradient"></linearGradient><linearGradient id="linear-gradient-15" x1="162.13" y1="58.47" x2="164.02" y2="52.3" xlink:href="#linear-gradient"></linearGradient><linearGradient id="linear-gradient-16" x1="153.24" y1="100.46" x2="153.24" y2="86.16" xlink:href="#linear-gradient"></linearGradient><linearGradient id="linear-gradient-17" x1="165.77" y1="98.79" x2="165.77" y2="85.88" xlink:href="#linear-gradient"></linearGradient><linearGradient id="linear-gradient-18" x1="161" y1="98.75" x2="161" y2="76.43" xlink:href="#linear-gradient"></linearGradient><linearGradient id="linear-gradient-19" x1="20.4" y1="83.92" x2="74.39" y2="25.19" xlink:href="#linear-gradient"></linearGradient></defs><path d="M214.26,78V89.56a1.79,1.79,0,0,0,0,.36.47.47,0,0,0,.17.25,1,1,0,0,0,.37.19,4.39,4.39,0,0,0,.68.14.36.36,0,0,1,.33.38,1.72,1.72,0,0,1,0,.2,1.3,1.3,0,0,1,0,.22l-1.51-.08-1.42,0-1.41,0L210,91.3a.51.51,0,0,1-.05-.22c0-.09,0-.16,0-.2a.5.5,0,0,1,.06-.26.44.44,0,0,1,.3-.14,2.1,2.1,0,0,0,1-.3.79.79,0,0,0,.21-.62V78h-1.94a3.47,3.47,0,0,0-1,.13,2,2,0,0,0-.75.37,2.47,2.47,0,0,0-.57.66,9.56,9.56,0,0,0-.52,1,.33.33,0,0,1-.33.2,1,1,0,0,1-.31-.06,1.18,1.18,0,0,1-.26-.1c.1-.35.19-.66.26-.93s.13-.54.18-.81.1-.63.13-.9a3,3,0,0,1,.11-.57.35.35,0,0,1,.35-.2c.16,0,.48,0,1,.07s1.05.06,1.73.06h6.77q1,0,1.71-.06c.47,0,.8-.07,1-.07a.38.38,0,0,1,.35.2,2.47,2.47,0,0,1,.1.57,6.87,6.87,0,0,0,.14.9,7.78,7.78,0,0,0,.17.81,8.81,8.81,0,0,0,.27.93,2,2,0,0,1-.27.1.89.89,0,0,1-.3.06.37.37,0,0,1-.35-.2,9.56,9.56,0,0,0-.52-1,2.66,2.66,0,0,0-.57-.66,2,2,0,0,0-.75-.37,3.46,3.46,0,0,0-1-.13Z" style="fill:#231f20"></path><path d="M237.52,89.56a1.79,1.79,0,0,0,0,.36.4.4,0,0,0,.18.25,1,1,0,0,0,.41.19,5.81,5.81,0,0,0,.74.14c.15,0,.22.16.22.38a1.72,1.72,0,0,1,0,.2c0,.08,0,.16,0,.22l-1.5-.08-1.41,0-1.44,0-1.51.08a.51.51,0,0,1,0-.22v-.2c0-.24.07-.36.22-.38a5.81,5.81,0,0,0,.74-.14.93.93,0,0,0,.4-.19.49.49,0,0,0,.18-.25,1.23,1.23,0,0,0,0-.36V84.39H228.8v5.17a1.23,1.23,0,0,0,0,.36.42.42,0,0,0,.17.25,1.17,1.17,0,0,0,.42.19,5.48,5.48,0,0,0,.74.14c.14,0,.22.16.22.38,0,0,0,.11,0,.2a1.24,1.24,0,0,1,0,.22l-1.52-.08-1.43,0-1.4,0-1.5.08a.51.51,0,0,1,0-.22v-.2c0-.24.07-.36.22-.38a5.61,5.61,0,0,0,.73-.14,1,1,0,0,0,.41-.19.49.49,0,0,0,.18-.25,1.23,1.23,0,0,0,0-.36v-11a1.28,1.28,0,0,0,0-.36.53.53,0,0,0-.18-.25,1.12,1.12,0,0,0-.41-.19,5.61,5.61,0,0,0-.73-.14c-.15,0-.22-.17-.22-.38V77a.69.69,0,0,1,0-.25l1.5.08,1.4,0,1.43,0,1.52-.08a1.87,1.87,0,0,1,0,.25c0,.08,0,.15,0,.19a.35.35,0,0,1-.22.38,5.48,5.48,0,0,0-.74.14,1.38,1.38,0,0,0-.42.19.45.45,0,0,0-.17.25,1.28,1.28,0,0,0,0,.36v4.69h5.94V78.53a1.28,1.28,0,0,0,0-.36.53.53,0,0,0-.18-.25,1.06,1.06,0,0,0-.4-.19,5.81,5.81,0,0,0-.74-.14c-.15,0-.22-.17-.22-.38V77a.69.69,0,0,1,0-.25l1.51.08,1.44,0,1.41,0,1.5-.08,0,.25a1.49,1.49,0,0,1,0,.19c0,.21-.07.33-.22.38a5.81,5.81,0,0,0-.74.14,1.21,1.21,0,0,0-.41.19.43.43,0,0,0-.18.25,1.86,1.86,0,0,0,0,.36Z" style="fill:#231f20"></path><path d="M248.78,78v5.31h3.1a.57.57,0,0,0,.57-.34,4,4,0,0,0,.27-1.12.28.28,0,0,1,.13-.23.76.76,0,0,1,.29,0h.21l.2,0c0,.34-.05.73-.07,1.18s0,.83,0,1.13,0,.58,0,.94,0,.76.08,1.22a.34.34,0,0,1-.2,0l-.21,0c-.27,0-.41-.11-.42-.31a4,4,0,0,0-.3-1.14.58.58,0,0,0-.54-.29h-3.1v4.93c0,.3.19.51.57.61a8.49,8.49,0,0,0,1.94.16h.92a3,3,0,0,0,1.11-.18,2.61,2.61,0,0,0,.81-.5,3.39,3.39,0,0,0,.61-.74c.18-.29.35-.61.53-1,0-.1.15-.15.31-.15a.73.73,0,0,1,.26.06l.31.13a2.58,2.58,0,0,1-.1.33c0,.11-.07.21-.1.31a2.74,2.74,0,0,0-.17.53,3.74,3.74,0,0,1-.14.46c0,.15-.06.31-.09.5s-.08.36-.11.52-.08.32-.11.46l-.08.26a.36.36,0,0,1-.35.18l-.51,0-.71,0-.79,0c-.26,0-.49,0-.68,0h-5l-1.46,0-1.49.08a.55.55,0,0,1,0-.24v-.2c0-.22.07-.34.22-.36a5.09,5.09,0,0,0,1.2-.33.62.62,0,0,0,.36-.61v-11a.8.8,0,0,0-.07-.36.58.58,0,0,0-.25-.24,2.2,2.2,0,0,0-.48-.18l-.76-.16c-.15,0-.22-.18-.22-.4V77a.59.59,0,0,1,0-.21c.63,0,1.19.08,1.67.09s.9,0,1.26,0h4.51c.66,0,1.22,0,1.7-.06s.8-.07,1-.07a.37.37,0,0,1,.35.2,2.61,2.61,0,0,1,.11.65,7.39,7.39,0,0,0,.16,1q.06.38.15.72c.06.24.15.53.26.86l-.24.09a.78.78,0,0,1-.26,0,.37.37,0,0,1-.35-.19,9.56,9.56,0,0,0-.52-1,2.66,2.66,0,0,0-.57-.66,2.11,2.11,0,0,0-.75-.37,4.36,4.36,0,0,0-1-.11Z" style="fill:#231f20"></path><path d="M279.65,78.73a1.42,1.42,0,0,0,.11-.46.48.48,0,0,0-.29-.45,3.26,3.26,0,0,0-1-.23c-.17,0-.26-.16-.26-.42a.38.38,0,0,1,0-.1.49.49,0,0,0,0-.12l0-.18.49,0,.62,0,.69,0h.62c.43,0,.83,0,1.22,0a6.6,6.6,0,0,0,1-.09l0,.18a.59.59,0,0,1,0,.13v.11c0,.28-.09.43-.27.44a2.94,2.94,0,0,0-1,.23,1.2,1.2,0,0,0-.47.59l-5.43,13-.18,0h-.15a.37.37,0,0,1-.26-.07.77.77,0,0,1-.16-.3l-5.15-12.74a1.46,1.46,0,0,0-.14-.28.78.78,0,0,0-.23-.21,1.63,1.63,0,0,0-.41-.14,5.78,5.78,0,0,0-.67-.1c-.19,0-.29-.17-.29-.46V77a.36.36,0,0,1,.05-.19l.74,0,.85,0,.84,0h.71l1.59,0,1.54-.08a.6.6,0,0,1,0,.22v.18c0,.26-.09.4-.26.42a2.79,2.79,0,0,0-1,.22.47.47,0,0,0-.29.42,1,1,0,0,0,.07.35l3.21,8.69Z" style="fill:#231f20"></path><path d="M292.56,86.35h-4.62L286.8,89.4a1.06,1.06,0,0,0-.09.25c0,.08,0,.15,0,.19a.47.47,0,0,0,.23.4,2.65,2.65,0,0,0,.94.26q.3,0,.3.42a2,2,0,0,1,0,.38l-1.25-.08-1.3,0c-.3,0-.6,0-.93,0s-.68,0-1.07.09a.46.46,0,0,1-.05-.2v-.18c0-.28.1-.42.29-.44a4.3,4.3,0,0,0,1-.28,1.17,1.17,0,0,0,.47-.53L290.56,77a.58.58,0,0,1,.53-.37h.22l.24,0,5.3,13.07a.93.93,0,0,0,.51.5,3,3,0,0,0,.81.23.39.39,0,0,1,.33.44,2,2,0,0,1,0,.4l-1.39-.08-1.27,0h-.75l-.9,0-.91,0-.76,0a.46.46,0,0,1-.05-.2v-.18a.51.51,0,0,1,.08-.3.42.42,0,0,1,.16-.12,2.91,2.91,0,0,0,.85-.25.47.47,0,0,0,.28-.43,1.22,1.22,0,0,0-.07-.33Zm-.41-1.1-1.87-5-1.92,5Z" style="fill:#231f20"></path><path d="M307.39,89.32c0,.3.2.51.6.61a8.76,8.76,0,0,0,2,.16h.83a3.05,3.05,0,0,0,1-.13,1.72,1.72,0,0,0,.71-.4,2.72,2.72,0,0,0,.56-.74,7.55,7.55,0,0,0,.5-1.09c0-.12.15-.17.33-.17a.73.73,0,0,1,.26.06l.31.13c-.12.47-.22,1-.32,1.53s-.18,1.09-.25,1.62c0,.18-.06.29-.14.33a.59.59,0,0,1-.26.07l-.49,0-.69,0-.76,0c-.26,0-.48,0-.67,0h-5l-1.46,0-1.49.08a.55.55,0,0,1,0-.24v-.2c0-.22.07-.34.22-.36a4.81,4.81,0,0,0,1.2-.33.62.62,0,0,0,.36-.61v-11a1.28,1.28,0,0,0,0-.36.53.53,0,0,0-.18-.25,1.12,1.12,0,0,0-.41-.19,5.61,5.61,0,0,0-.73-.14c-.15,0-.22-.17-.22-.38V77a.69.69,0,0,1,0-.25l1.5.08,1.41,0h.7l.82,0,.86,0,.78,0a1.87,1.87,0,0,1,0,.25c0,.08,0,.15,0,.19a.35.35,0,0,1-.22.38,3.52,3.52,0,0,0-1.27.34.73.73,0,0,0-.32.65Z" style="fill:#231f20"></path><path d="M330.93,85.75a9.2,9.2,0,0,1-.26,2.3,4.38,4.38,0,0,1-.91,1.8A4.17,4.17,0,0,1,328,91a7.7,7.7,0,0,1-2.74.42,9.49,9.49,0,0,1-3.16-.44,4.22,4.22,0,0,1-1.84-1.2,3.87,3.87,0,0,1-.87-1.78,10.16,10.16,0,0,1-.22-2.19V78.53a.71.71,0,0,0-.29-.64,3,3,0,0,0-1.17-.3q-.24,0-.24-.42V77a.63.63,0,0,1,.05-.22l1.35.08c.48,0,1,0,1.7,0l1.61,0,1.5-.08,0,.22a1.36,1.36,0,0,1,0,.18q0,.38-.24.42a3.11,3.11,0,0,0-1.22.31.67.67,0,0,0-.32.63v6.83a5.91,5.91,0,0,0,.85,3.47A3.32,3.32,0,0,0,325.72,90a3.62,3.62,0,0,0,3-1.11,5.78,5.78,0,0,0,.89-3.62V78.53a.7.7,0,0,0-.3-.63,3,3,0,0,0-1.17-.31c-.18,0-.26-.18-.26-.42a1.36,1.36,0,0,1,0-.18l0-.22c.43,0,.82.08,1.18.09s.74,0,1.15,0,.89,0,1.26,0a9.83,9.83,0,0,0,1.08-.09l0,.22a1.36,1.36,0,0,1,0,.18c0,.24-.09.37-.26.42a2.69,2.69,0,0,0-1.13.3.72.72,0,0,0-.31.64Z" style="fill:#231f20"></path><path d="M342.15,78v5.31h3.11a.57.57,0,0,0,.57-.34,4.52,4.52,0,0,0,.26-1.12.29.29,0,0,1,.14-.23.7.7,0,0,1,.28,0h.21l.21,0c0,.34-.06.73-.08,1.18s0,.83,0,1.13,0,.58,0,.94.05.76.09,1.22a.36.36,0,0,1-.21,0l-.21,0c-.26,0-.4-.11-.42-.31a3.75,3.75,0,0,0-.29-1.14.58.58,0,0,0-.54-.29h-3.11v4.93c0,.3.2.51.58.61a8.39,8.39,0,0,0,1.93.16h.93a3,3,0,0,0,1.11-.18,2.46,2.46,0,0,0,.8-.5,3.43,3.43,0,0,0,.62-.74c.17-.29.35-.61.53-1q.06-.15.3-.15a.78.78,0,0,1,.27.06l.31.13c0,.12-.07.23-.1.33s-.07.21-.1.31a2.75,2.75,0,0,0-.18.53,4,4,0,0,1-.13.46l-.1.5c0,.18-.07.36-.11.52s-.07.32-.11.46-.06.22-.08.26a.35.35,0,0,1-.35.18l-.5,0-.72,0-.78,0c-.26,0-.49,0-.68,0h-5l-1.46,0-1.49.08a.75.75,0,0,1,0-.24v-.2c0-.22.07-.34.22-.36a4.81,4.81,0,0,0,1.2-.33.62.62,0,0,0,.36-.61v-11a1,1,0,0,0-.06-.36.61.61,0,0,0-.26-.24,1.86,1.86,0,0,0-.48-.18l-.76-.16c-.15,0-.22-.18-.22-.4V77a1,1,0,0,1,0-.21c.64,0,1.19.08,1.68.09s.9,0,1.25,0h4.51q1,0,1.71-.06c.47,0,.8-.07,1-.07a.38.38,0,0,1,.35.2,3.19,3.19,0,0,1,.11.65,9.36,9.36,0,0,0,.15,1c.05.25.1.49.16.72a6.53,6.53,0,0,0,.26.86l-.24.09a.84.84,0,0,1-.27,0,.37.37,0,0,1-.35-.19,7.93,7.93,0,0,0-.52-1,2.47,2.47,0,0,0-.57-.66,2,2,0,0,0-.75-.37,4.24,4.24,0,0,0-1-.11Z" style="fill:#231f20"></path><path d="M362.16,84a7.17,7.17,0,0,1,.58-2.89,7.5,7.5,0,0,1,4-4,7.17,7.17,0,0,1,2.89-.58,7.74,7.74,0,0,1,3,.55,7.19,7.19,0,0,1,2.37,1.54,7.34,7.34,0,0,1,1.57,2.35,7.64,7.64,0,0,1,.57,3,7.29,7.29,0,0,1-2.18,5.24,7.48,7.48,0,0,1-2.37,1.59,7.31,7.31,0,0,1-2.91.58,7.78,7.78,0,0,1-2.95-.55,7,7,0,0,1-2.35-1.54A7.27,7.27,0,0,1,362.73,87,7.64,7.64,0,0,1,362.16,84Zm7.76,6.27a3.41,3.41,0,0,0,1.67-.41,4,4,0,0,0,1.29-1.11,5.35,5.35,0,0,0,.84-1.65,7,7,0,0,0,.29-2,13.9,13.9,0,0,0-.29-2.9,7.26,7.26,0,0,0-.91-2.32,4.55,4.55,0,0,0-1.51-1.54,3.94,3.94,0,0,0-2.13-.56,3.41,3.41,0,0,0-1.49.34,3.57,3.57,0,0,0-1.28,1,4.86,4.86,0,0,0-.88,1.57,6.19,6.19,0,0,0-.33,2.09,13.65,13.65,0,0,0,.32,3,8.15,8.15,0,0,0,.92,2.38,4.66,4.66,0,0,0,1.49,1.56A3.6,3.6,0,0,0,369.92,90.31Z" style="fill:#231f20"></path><path d="M383.89,78.53a1.16,1.16,0,0,0-.05-.34.6.6,0,0,0-.23-.25,1.79,1.79,0,0,0-.49-.19l-.79-.16c-.15,0-.22-.18-.22-.4V77a1,1,0,0,1,0-.21c.64,0,1.19.08,1.68.09s.89,0,1.23,0h4.51c.67,0,1.25,0,1.73-.06s.79-.07.95-.07a.4.4,0,0,1,.36.2,3.19,3.19,0,0,1,.11.65,7.3,7.3,0,0,0,.15,1q.06.38.15.72a8.88,8.88,0,0,0,.27.86l-.23.09a1,1,0,0,1-.28,0,.33.33,0,0,1-.33-.19,7.93,7.93,0,0,0-.52-1,2.47,2.47,0,0,0-.57-.66,2,2,0,0,0-.75-.37,4.36,4.36,0,0,0-1-.11h-2.91v5.57h3a.56.56,0,0,0,.54-.36,4.67,4.67,0,0,0,.28-1.09.37.37,0,0,1,.41-.29h.21a.7.7,0,0,1,.21,0c0,.33-.05.73-.08,1.17s0,.83,0,1.14,0,.57,0,.93.05.77.09,1.22a.43.43,0,0,1-.2.06H391c-.25,0-.4-.1-.44-.31a3.58,3.58,0,0,0-.27-1.07.58.58,0,0,0-.55-.36h-3v4.93a.47.47,0,0,0,.16.36,1.06,1.06,0,0,0,.42.24,3,3,0,0,0,.61.16l.75.12c.18,0,.27.14.27.37,0,0,0,.12,0,.22a.81.81,0,0,1,0,.25l-.61,0c-.21,0-.42,0-.62,0-.38,0-.79,0-1.22,0h-2l-.76,0c-.26,0-.52,0-.78,0l-.72,0a.75.75,0,0,1,0-.24v-.2c0-.22.07-.34.22-.36a7.74,7.74,0,0,0,1.14-.34.6.6,0,0,0,.42-.6Z" style="fill:#231f20"></path><path d="M418,91.08l-1,.15-.95.12c-.34,0-.7.06-1.08.08l-1.36,0a10.09,10.09,0,0,1-3.43-.53,6,6,0,0,1-2.37-1.51,6.22,6.22,0,0,1-1.37-2.34,9.35,9.35,0,0,1-.46-3,8.33,8.33,0,0,1,.44-2.62A7.2,7.2,0,0,1,407.8,79a7.06,7.06,0,0,1,2.29-1.74,7.21,7.21,0,0,1,3.22-.67,18,18,0,0,1,2.61.19,23.43,23.43,0,0,1,2.52.49c0,.4.08.9.17,1.52a13.05,13.05,0,0,0,.38,1.8l-.27.06-.24,0a.85.85,0,0,1-.3,0,.34.34,0,0,1-.16-.23,3.28,3.28,0,0,0-1.52-2.08,5.49,5.49,0,0,0-2.62-.56,5.14,5.14,0,0,0-2.1.4,3.91,3.91,0,0,0-1.52,1.17,5.34,5.34,0,0,0-.92,1.83A8.13,8.13,0,0,0,409,83.6a10,10,0,0,0,.35,2.7,6.44,6.44,0,0,0,1,2.12,4.73,4.73,0,0,0,1.69,1.39,5.12,5.12,0,0,0,2.3.5,6.68,6.68,0,0,0,.82,0,5.66,5.66,0,0,0,.76-.15V86.94a1,1,0,0,0-.33-.83,3,3,0,0,0-1.17-.34.37.37,0,0,1-.24-.18.74.74,0,0,1-.06-.28,1.72,1.72,0,0,1,0-.2c0-.08,0-.15,0-.19l.74,0,.84,0,.82,0,.69,0,.68,0,.79,0,.8,0,.65,0a.54.54,0,0,1,0,.22v.17a.45.45,0,0,1-.08.3.49.49,0,0,1-.18.14,2.28,2.28,0,0,0-1,.29.74.74,0,0,0-.28.66v3.83a.47.47,0,0,1-.11.33A1.23,1.23,0,0,1,418,91.08Z" style="fill:#231f20"></path><path d="M429.48,89.32c0,.3.2.51.59.61a8.83,8.83,0,0,0,2,.16h.84a3.14,3.14,0,0,0,1-.13,1.79,1.79,0,0,0,.71-.4,2.93,2.93,0,0,0,.56-.74,7.55,7.55,0,0,0,.5-1.09c0-.12.15-.17.33-.17a.73.73,0,0,1,.26.06l.31.13c-.12.47-.23,1-.32,1.53s-.18,1.09-.25,1.62q0,.27-.15.33a.55.55,0,0,1-.25.07l-.49,0-.7,0-.76,0c-.25,0-.48,0-.67,0h-5l-1.47,0L425,91.3a.55.55,0,0,1,0-.24v-.2c0-.22.07-.34.22-.36a4.84,4.84,0,0,0,1.19-.33.61.61,0,0,0,.37-.61v-11a1.25,1.25,0,0,0,0-.36.51.51,0,0,0-.17-.25,1.21,1.21,0,0,0-.41-.19,5.48,5.48,0,0,0-.74-.14.35.35,0,0,1-.22-.38V77a.7.7,0,0,1,.05-.25l1.49.08,1.41,0h.71l.82,0,.86,0,.78,0a1.9,1.9,0,0,1,0,.25,1.49,1.49,0,0,1,0,.19c0,.21-.07.33-.22.38a3.45,3.45,0,0,0-1.26.34.73.73,0,0,0-.32.65Z" style="fill:#231f20"></path><path d="M440.46,84a7.17,7.17,0,0,1,.58-2.89,7.59,7.59,0,0,1,4-4,7.26,7.26,0,0,1,2.9-.58,7.69,7.69,0,0,1,2.94.55,7,7,0,0,1,3.94,3.89,7.65,7.65,0,0,1,.58,3,7.22,7.22,0,0,1-.59,2.89,7.39,7.39,0,0,1-1.59,2.35,7.64,7.64,0,0,1-2.38,1.59,7.29,7.29,0,0,1-2.9.58A7.74,7.74,0,0,1,445,90.9a7,7,0,0,1-2.36-1.54A7.27,7.27,0,0,1,441,87,7.64,7.64,0,0,1,440.46,84Zm7.77,6.27a3.47,3.47,0,0,0,1.67-.41,4,4,0,0,0,1.29-1.11,5.33,5.33,0,0,0,.83-1.65,6.69,6.69,0,0,0,.3-2,13.24,13.24,0,0,0-.3-2.9,7.49,7.49,0,0,0-.9-2.32,4.57,4.57,0,0,0-1.52-1.54,3.9,3.9,0,0,0-2.12-.56,3.49,3.49,0,0,0-1.5.34,3.54,3.54,0,0,0-1.27,1,4.86,4.86,0,0,0-.88,1.57,6.19,6.19,0,0,0-.33,2.09,13.08,13.08,0,0,0,.32,3,8.15,8.15,0,0,0,.92,2.38,4.63,4.63,0,0,0,1.48,1.56A3.63,3.63,0,0,0,448.23,90.31Z" style="fill:#231f20"></path><path d="M468.2,83.55a7.39,7.39,0,0,1,1.71.36,4.83,4.83,0,0,1,1.35.73,3.25,3.25,0,0,1,.89,1.07,2.81,2.81,0,0,1,.32,1.36,4,4,0,0,1-.38,1.78A3.56,3.56,0,0,1,471,90.14a4.66,4.66,0,0,1-1.68.78,8.39,8.39,0,0,1-2.2.27h-4.7a9.36,9.36,0,0,0-.94,0,4.53,4.53,0,0,1-.52,0l-.51,0,0-.16a.25.25,0,0,1,0-.12v-.1a.49.49,0,0,1,.07-.32.44.44,0,0,1,.19-.1,3,3,0,0,0,1.09-.3.72.72,0,0,0,.32-.64v-11a.68.68,0,0,0-.29-.62,3.1,3.1,0,0,0-1.12-.32.29.29,0,0,1-.22-.17.85.85,0,0,1,0-.29V77a.16.16,0,0,1,0-.1.78.78,0,0,1,0-.16l1.48.08,1.36,0h3a8.51,8.51,0,0,1,2.34.28,3.92,3.92,0,0,1,1.47.76,2.63,2.63,0,0,1,.78,1.11,3.62,3.62,0,0,1,.23,1.31,2.62,2.62,0,0,1-.83,2,5.18,5.18,0,0,1-2.12,1.12Zm-3-.42a3.94,3.94,0,0,0,1.43-.22,2.34,2.34,0,0,0,.92-.6,2.48,2.48,0,0,0,.48-.87,3.73,3.73,0,0,0,.14-1,2.76,2.76,0,0,0-.16-1,2.06,2.06,0,0,0-.52-.78,2.47,2.47,0,0,0-.92-.52,4.62,4.62,0,0,0-1.37-.19h-.35v5.15Zm-.35,6.21a.63.63,0,0,0,.47.65,4,4,0,0,0,1.09.14,3.42,3.42,0,0,0,2.27-.65,2.63,2.63,0,0,0,.75-2.1,3.35,3.35,0,0,0-.28-1.39,2.79,2.79,0,0,0-.74-1,3.15,3.15,0,0,0-1.07-.58,4.31,4.31,0,0,0-1.3-.2h-1.19Z" style="fill:#231f20"></path><path d="M484.75,86.35h-4.62L479,89.4a.58.58,0,0,0-.09.25.76.76,0,0,0,0,.19.45.45,0,0,0,.23.4,2.58,2.58,0,0,0,.93.26c.21,0,.31.17.31.42a2,2,0,0,1,0,.38l-1.26-.08-1.3,0c-.29,0-.6,0-.92,0s-.68,0-1.08.09a.45.45,0,0,1,0-.2v-.18c0-.28.09-.42.28-.44a4.15,4.15,0,0,0,1-.28,1.14,1.14,0,0,0,.48-.53L482.75,77a.57.57,0,0,1,.53-.37h.22l.24,0L489,89.73a.93.93,0,0,0,.51.5,3,3,0,0,0,.81.23.39.39,0,0,1,.33.44,2,2,0,0,1,0,.4l-1.39-.08-1.28,0h-.74l-.91,0-.91,0-.76,0a.45.45,0,0,1,0-.2v-.18a.45.45,0,0,1,.08-.3.36.36,0,0,1,.16-.12,3.12,3.12,0,0,0,.85-.25.46.46,0,0,0,.27-.43,1.16,1.16,0,0,0-.06-.33Zm-.42-1.1-1.87-5-1.91,5Z" style="fill:#231f20"></path><path d="M499.58,89.32c0,.3.2.51.59.61a8.83,8.83,0,0,0,2,.16H503a3,3,0,0,0,.95-.13,1.76,1.76,0,0,0,.72-.4,3.19,3.19,0,0,0,.56-.74,7.6,7.6,0,0,0,.49-1.09c.05-.12.16-.17.33-.17a.74.74,0,0,1,.27.06l.31.13c-.12.47-.23,1-.32,1.53s-.18,1.09-.26,1.62c0,.18-.06.29-.14.33a.55.55,0,0,1-.25.07l-.5,0-.69,0-.76,0c-.25,0-.48,0-.67,0h-5l-1.47,0-1.48.08a.54.54,0,0,1-.05-.24v-.2c0-.22.08-.34.22-.36a4.81,4.81,0,0,0,1.2-.33.61.61,0,0,0,.37-.61v-11a1.25,1.25,0,0,0-.05-.36.59.59,0,0,0-.17-.25,1.21,1.21,0,0,0-.41-.19,5.48,5.48,0,0,0-.74-.14.35.35,0,0,1-.22-.38V77a.7.7,0,0,1,0-.25l1.49.08,1.41,0h.7l.83,0,.86,0,.78,0,0,.25a1.49,1.49,0,0,1,0,.19c0,.21-.07.33-.22.38a3.45,3.45,0,0,0-1.26.34.71.71,0,0,0-.32.65Z" style="fill:#231f20"></path><path d="M532.54,77.3a.7.7,0,0,1,.28-.31,2.66,2.66,0,0,1,1-.11h.52l.74,0,.79,0,.68,0a.6.6,0,0,1,0,.22v.18c0,.24-.08.37-.24.42s-.52.09-.69.13a1,1,0,0,0-.39.17.48.48,0,0,0-.17.23.9.9,0,0,0-.05.3s0,.31,0,.84.05,1.18.1,2,.08,1.62.13,2.53.09,1.77.13,2.58.08,1.53.11,2.13.05,1,.07,1.1a1,1,0,0,0,0,.36.53.53,0,0,0,.2.25,1,1,0,0,0,.41.19,5,5,0,0,0,.68.14q.24,0,.24.42a2,2,0,0,1,0,.38l-1.4-.08c-.42,0-.89,0-1.42,0l-1.55,0c-.55,0-1,0-1.38.08a2,2,0,0,1,0-.38.53.53,0,0,1,.08-.33.21.21,0,0,1,.14-.09,3,3,0,0,0,1.17-.36.8.8,0,0,0,.26-.65s0-.28,0-.7-.05-1-.07-1.59,0-1.31-.09-2-.07-1.43-.11-2.07-.06-1.2-.09-1.67,0-.76-.05-.86l-4.51,10.49a2,2,0,0,1-.19.3.24.24,0,0,1-.21.1h-.13l-.13,0-5.11-12.24c0,.2,0,.58,0,1.16s-.05,1.24-.09,2-.07,1.54-.11,2.37-.07,1.59-.1,2.3,0,1.29-.07,1.77,0,.73,0,.78a1.16,1.16,0,0,0,0,.34.51.51,0,0,0,.17.25,1.15,1.15,0,0,0,.4.19c.17,0,.42.1.72.16s.25.17.25.42c0,0,0,.1,0,.17s0,.13,0,.21l-1.1-.08c-.34,0-.67,0-1,0l-1.1,0L519,91.3a.45.45,0,0,1,0-.2v-.18a.57.57,0,0,1,.06-.32.4.4,0,0,1,.18-.1,3.33,3.33,0,0,0,1-.35.75.75,0,0,0,.35-.59c0-.12,0-.48,0-1.07s.06-1.3.11-2.11.08-1.68.13-2.6.08-1.77.12-2.55.07-1.44.09-2,0-.81,0-.84a.6.6,0,0,0-.24-.53,3.12,3.12,0,0,0-1.06-.3q-.24,0-.24-.42V77a.6.6,0,0,1,0-.22l.8,0,1,0,1,0H523a4.68,4.68,0,0,1,.62,0L524,77a.35.35,0,0,1,.19.14l.09.17,4.1,9.88Z" style="fill:#231f20"></path><path d="M550.56,86.35h-4.62l-1.15,3.05a1.06,1.06,0,0,0-.09.25c0,.08,0,.15,0,.19a.47.47,0,0,0,.23.4,2.72,2.72,0,0,0,.94.26c.2,0,.31.17.31.42a2.09,2.09,0,0,1,0,.38l-1.25-.08-1.3,0c-.29,0-.6,0-.92,0s-.69,0-1.08.09a.46.46,0,0,1,0-.2v-.18c0-.28.1-.42.29-.44a4.3,4.3,0,0,0,1-.28,1.07,1.07,0,0,0,.47-.53L548.55,77a.58.58,0,0,1,.53-.37h.22l.24,0,5.31,13.07a.91.91,0,0,0,.5.5,3,3,0,0,0,.82.23.39.39,0,0,1,.33.44,2.08,2.08,0,0,1,0,.4l-1.38-.08-1.28,0H553l-.9,0-.91,0-.76,0a.46.46,0,0,1-.05-.2v-.18a.51.51,0,0,1,.08-.3.38.38,0,0,1,.17-.12,2.93,2.93,0,0,0,.84-.25.45.45,0,0,0,.28-.43.93.93,0,0,0-.07-.33Zm-.42-1.1-1.87-5-1.92,5Z" style="fill:#231f20"></path><path d="M567.1,91.45a8.43,8.43,0,0,1-3.23-.57,6.13,6.13,0,0,1-2.29-1.58A6.52,6.52,0,0,1,560.23,87a9.15,9.15,0,0,1-.45-2.91,8,8,0,0,1,.44-2.62A6.76,6.76,0,0,1,561.6,79,7.2,7.2,0,0,1,564,77.29a8.41,8.41,0,0,1,3.52-.67,13.83,13.83,0,0,1,2.1.15,21.42,21.42,0,0,1,2.13.47c0,.39.09.9.17,1.51a15.28,15.28,0,0,0,.38,1.81l-.29,0a1.09,1.09,0,0,1-.26,0,.67.67,0,0,1-.3-.06.28.28,0,0,1-.16-.23,6.69,6.69,0,0,0-.55-1.22,2.81,2.81,0,0,0-.74-.79,2.91,2.91,0,0,0-1-.43,6,6,0,0,0-1.35-.13,5.14,5.14,0,0,0-2.1.4A4,4,0,0,0,564,79.36a5.18,5.18,0,0,0-.93,1.83,8.47,8.47,0,0,0-.32,2.41,9.1,9.1,0,0,0,.38,2.66,7.08,7.08,0,0,0,1.06,2.13,5,5,0,0,0,1.6,1.41,4,4,0,0,0,2,.51,6,6,0,0,0,1.51-.17,3,3,0,0,0,1.07-.51,2.92,2.92,0,0,0,.77-.86,7.54,7.54,0,0,0,.59-1.24.44.44,0,0,1,.21-.25.6.6,0,0,1,.29-.08,1,1,0,0,1,.28,0,1.31,1.31,0,0,1,.27.07c-.08.25-.18.53-.27.85l-.3,1q-.15.5-.27,1c-.09.33-.15.65-.21,1-.72.13-1.45.22-2.2.28S568,91.45,567.1,91.45Z" style="fill:#231f20"></path><path d="M583.23,84.81h-1V89.4a.75.75,0,0,0,.43.72,5.3,5.3,0,0,0,1.47.34c.2,0,.3.18.3.44a2,2,0,0,1,0,.4c-.43,0-1-.06-1.6-.08s-1.33,0-2.07,0q-.79,0-1.53,0l-1.38.08a.45.45,0,0,1,0-.2v-.18q0-.37.24-.42l.75-.16a1.54,1.54,0,0,0,.44-.18.49.49,0,0,0,.21-.24,1.2,1.2,0,0,0,0-.36v-11a.69.69,0,0,0-.32-.63,3.11,3.11,0,0,0-1.22-.31.46.46,0,0,1-.18-.13.58.58,0,0,1-.06-.31V77a.34.34,0,0,1,0-.18l1.42.08,1.44,0H584a7.13,7.13,0,0,1,2.09.29,4.67,4.67,0,0,1,1.57.81A3.58,3.58,0,0,1,589,80.84a3.47,3.47,0,0,1-.72,2.13,4.27,4.27,0,0,1-2,1.44l3.45,5a2.18,2.18,0,0,0,.91.79,6.11,6.11,0,0,0,1,.33.32.32,0,0,1,.18.1.45.45,0,0,1,.06.27v.2a.57.57,0,0,1,0,.22l-.68,0-.92,0-.94,0h-.78a1.49,1.49,0,0,1-.93-.38,4.92,4.92,0,0,1-.9-1Zm-.29-1.1a5.22,5.22,0,0,0,1.24-.14,2.29,2.29,0,0,0,.94-.45,1.92,1.92,0,0,0,.61-.85,3.62,3.62,0,0,0,.21-1.34,3.23,3.23,0,0,0-.66-2.15,2.91,2.91,0,0,0-2.34-.8h-.66v5.73Z" style="fill:#231f20"></path><path d="M596.21,84a7.17,7.17,0,0,1,.58-2.89,7.59,7.59,0,0,1,4-4,7.26,7.26,0,0,1,2.9-.58,7.69,7.69,0,0,1,2.94.55,7,7,0,0,1,3.94,3.89,7.65,7.65,0,0,1,.58,3,7.22,7.22,0,0,1-.59,2.89,7.39,7.39,0,0,1-1.59,2.35,7.64,7.64,0,0,1-2.38,1.59,7.29,7.29,0,0,1-2.9.58,7.74,7.74,0,0,1-2.95-.55,7,7,0,0,1-2.36-1.54A7.27,7.27,0,0,1,596.78,87,7.64,7.64,0,0,1,596.21,84ZM604,90.31a3.47,3.47,0,0,0,1.67-.41,4,4,0,0,0,1.29-1.11,5.33,5.33,0,0,0,.83-1.65,6.69,6.69,0,0,0,.3-2,13.24,13.24,0,0,0-.3-2.9,7.49,7.49,0,0,0-.9-2.32,4.57,4.57,0,0,0-1.52-1.54,3.9,3.9,0,0,0-2.12-.56,3.49,3.49,0,0,0-1.5.34,3.54,3.54,0,0,0-1.27,1,4.86,4.86,0,0,0-.88,1.57,6.19,6.19,0,0,0-.33,2.09,13.08,13.08,0,0,0,.32,3,8.15,8.15,0,0,0,.92,2.38A4.63,4.63,0,0,0,602,89.74,3.63,3.63,0,0,0,604,90.31Z" style="fill:#231f20"></path><path d="M628.51,89.56a1.79,1.79,0,0,0,0,.36.4.4,0,0,0,.18.25,1,1,0,0,0,.42.19,5.61,5.61,0,0,0,.73.14c.15,0,.22.16.22.38a1.72,1.72,0,0,1,0,.2c0,.08,0,.16,0,.22l-1.51-.08-1.42,0-1.43,0-1.49.08a.51.51,0,0,1-.05-.22v-.2c0-.24.08-.36.22-.38a5.48,5.48,0,0,0,.74-.14,1,1,0,0,0,.41-.19.53.53,0,0,0,.17-.25,1.2,1.2,0,0,0,0-.36v-11a1.25,1.25,0,0,0,0-.36.59.59,0,0,0-.17-.25,1.21,1.21,0,0,0-.41-.19,5.48,5.48,0,0,0-.74-.14.35.35,0,0,1-.22-.38V77a.7.7,0,0,1,.05-.25l1.49.08,1.43,0,1.42,0,1.51-.08,0,.25a1.49,1.49,0,0,1,0,.19c0,.21-.07.33-.22.38a5.61,5.61,0,0,0-.73.14,1.18,1.18,0,0,0-.42.19.43.43,0,0,0-.18.25,1.86,1.86,0,0,0,0,.36Z" style="fill:#231f20"></path><path d="M646.75,86.39V78.58a.73.73,0,0,0-.33-.68,3.07,3.07,0,0,0-1.17-.31c-.19,0-.28-.18-.28-.42V77a.6.6,0,0,1,0-.22,10.25,10.25,0,0,0,1.08.09c.35,0,.76,0,1.23,0s.87,0,1.21,0a8.42,8.42,0,0,0,1-.09,2.07,2.07,0,0,1,0,.22c0,.08,0,.14,0,.18q0,.38-.27.42a2.24,2.24,0,0,0-1,.31.75.75,0,0,0-.26.63V91.41l-.3,0h-.27a.8.8,0,0,1-.33-.08,1.06,1.06,0,0,1-.38-.32l-8.67-11v9.51a1.23,1.23,0,0,0,0,.36.37.37,0,0,0,.17.24,1.39,1.39,0,0,0,.42.18c.18,0,.43.1.74.16a.5.5,0,0,1,.19.1.49.49,0,0,1,.07.32,2,2,0,0,1,0,.38l-1-.08c-.32,0-.69,0-1.12,0s-.83,0-1.22,0l-1.07.08a.45.45,0,0,1,0-.2v-.18a.48.48,0,0,1,.08-.31.34.34,0,0,1,.18-.11,2.46,2.46,0,0,0,1.06-.33.69.69,0,0,0,.26-.61V78.42a.62.62,0,0,0-.23-.53,2.25,2.25,0,0,0-1-.3c-.18,0-.27-.18-.27-.42v-.1a.27.27,0,0,1,0-.12l0-.18.59,0c.19,0,.38,0,.57,0s.65,0,1,0h.81a3.56,3.56,0,0,1,.83.06.84.84,0,0,1,.35.21Z" style="fill:#231f20"></path><path d="M665.36,78.73a1.42,1.42,0,0,0,.11-.46.47.47,0,0,0-.28-.45,3.43,3.43,0,0,0-1-.23q-.27,0-.27-.42a.38.38,0,0,1,0-.1.49.49,0,0,0,0-.12l0-.18.48,0,.63,0,.68,0h.63c.42,0,.83,0,1.22,0a6.86,6.86,0,0,0,1-.09l0,.18a.59.59,0,0,1,0,.13v.11c0,.28-.09.43-.26.44a2.88,2.88,0,0,0-1,.23,1.16,1.16,0,0,0-.48.59l-5.43,13-.18,0h-.15a.34.34,0,0,1-.25-.07.65.65,0,0,1-.17-.3l-5.15-12.74a1.46,1.46,0,0,0-.14-.28.67.67,0,0,0-.23-.21,1.5,1.5,0,0,0-.41-.14,5.78,5.78,0,0,0-.67-.1c-.19,0-.29-.17-.29-.46V77a.36.36,0,0,1,0-.19l.75,0,.84,0,.84,0H657l1.59,0,1.54-.08a.6.6,0,0,1,0,.22v.18c0,.26-.09.4-.26.42a2.79,2.79,0,0,0-1,.22.47.47,0,0,0-.29.42,1,1,0,0,0,.07.35L662,87.27Z" style="fill:#231f20"></path><path d="M677.55,78v5.31h3.1a.57.57,0,0,0,.57-.34,4,4,0,0,0,.27-1.12.28.28,0,0,1,.13-.23.76.76,0,0,1,.29,0h.21l.21,0c0,.34-.06.73-.08,1.18s0,.83,0,1.13,0,.58,0,.94,0,.76.09,1.22a.41.41,0,0,1-.21,0l-.21,0c-.27,0-.41-.11-.42-.31a4,4,0,0,0-.3-1.14.58.58,0,0,0-.54-.29h-3.1v4.93c0,.3.19.51.57.61a8.49,8.49,0,0,0,1.94.16H681a3,3,0,0,0,1.11-.18,2.61,2.61,0,0,0,.81-.5,3.39,3.39,0,0,0,.61-.74,10.61,10.61,0,0,0,.53-1,.31.31,0,0,1,.31-.15.73.73,0,0,1,.26.06l.31.13a2.58,2.58,0,0,1-.1.33c0,.11-.07.21-.1.31a2.74,2.74,0,0,0-.17.53c0,.19-.09.34-.13.46s-.07.31-.1.5-.08.36-.11.52-.08.32-.11.46l-.08.26a.36.36,0,0,1-.35.18l-.51,0-.71,0-.78,0c-.27,0-.5,0-.69,0h-5l-1.46,0L673,91.3a.55.55,0,0,1,0-.24v-.2c0-.22.07-.34.22-.36a5.09,5.09,0,0,0,1.2-.33.62.62,0,0,0,.36-.61v-11a.8.8,0,0,0-.07-.36.58.58,0,0,0-.25-.24,2.2,2.2,0,0,0-.48-.18l-.76-.16c-.15,0-.22-.18-.22-.4V77a.59.59,0,0,1,0-.21c.63,0,1.19.08,1.67.09s.9,0,1.26,0h4.51c.66,0,1.23,0,1.7-.06s.81-.07,1-.07a.37.37,0,0,1,.35.2,2.61,2.61,0,0,1,.11.65,7.39,7.39,0,0,0,.16,1q.06.38.15.72a8.88,8.88,0,0,0,.27.86l-.25.09a.75.75,0,0,1-.26,0,.37.37,0,0,1-.35-.19,9.56,9.56,0,0,0-.52-1,2.66,2.66,0,0,0-.57-.66,2,2,0,0,0-.75-.37,4.36,4.36,0,0,0-1-.11Z" style="fill:#231f20"></path><path d="M699.14,80.45a1.52,1.52,0,0,1-.42.06.63.63,0,0,1-.44-.12.59.59,0,0,1-.18-.25,3.77,3.77,0,0,0-1.31-1.8,3.69,3.69,0,0,0-2.14-.55,3.08,3.08,0,0,0-1.8.51,1.8,1.8,0,0,0-.73,1.58,1.65,1.65,0,0,0,.56,1.31,5,5,0,0,0,1.41.86c.56.25,1.17.5,1.82.73a10.3,10.3,0,0,1,1.83.88A4.87,4.87,0,0,1,699.15,85a3.65,3.65,0,0,1,.56,2.09,4.79,4.79,0,0,1-.29,1.63,3.66,3.66,0,0,1-.9,1.4,4.66,4.66,0,0,1-1.56,1,6.4,6.4,0,0,1-2.27.36,9.86,9.86,0,0,1-2.6-.31,11.5,11.5,0,0,1-1.89-.68q-.06-.94-.21-1.86c-.09-.61-.2-1.2-.32-1.77a1.36,1.36,0,0,1,.51-.09.64.64,0,0,1,.4.1.83.83,0,0,1,.22.34,8.16,8.16,0,0,0,.63,1.44,3.55,3.55,0,0,0,.82,1,2.75,2.75,0,0,0,1.07.56,4.83,4.83,0,0,0,1.39.18,3.12,3.12,0,0,0,1.17-.19,2.31,2.31,0,0,0,.79-.49,1.93,1.93,0,0,0,.46-.73,2.57,2.57,0,0,0,.16-.86,2,2,0,0,0-.54-1.49,4.5,4.5,0,0,0-1.34-.9c-.54-.24-1.12-.47-1.74-.68a8.7,8.7,0,0,1-1.74-.82,4.42,4.42,0,0,1-1.34-1.28,3.63,3.63,0,0,1-.54-2.1,4,4,0,0,1,.32-1.64,3.73,3.73,0,0,1,.93-1.33,4.69,4.69,0,0,1,1.49-.89,5.57,5.57,0,0,1,2-.33,9.2,9.2,0,0,1,1.86.2,13.5,13.5,0,0,1,2.12.66c0,.44.08.93.14,1.48S699.05,80,699.14,80.45Z" style="fill:#231f20"></path><path d="M712.47,78V89.56a1.79,1.79,0,0,0,0,.36.42.42,0,0,0,.17.25.91.91,0,0,0,.37.19,4.39,4.39,0,0,0,.68.14.36.36,0,0,1,.33.38,1.72,1.72,0,0,1,0,.2c0,.08,0,.16,0,.22l-1.51-.08-1.42,0-1.42,0-1.48.08a.71.71,0,0,1-.06-.22c0-.09,0-.16,0-.2a.5.5,0,0,1,.06-.26c0-.06.13-.11.29-.14a2.11,2.11,0,0,0,1-.3.79.79,0,0,0,.21-.62V78h-1.94a3.58,3.58,0,0,0-1,.13,2.06,2.06,0,0,0-.74.37,2.5,2.5,0,0,0-.58.66,9.67,9.67,0,0,0-.51,1,.33.33,0,0,1-.33.2,1,1,0,0,1-.31-.06,1,1,0,0,1-.26-.1c.1-.35.19-.66.26-.93s.13-.54.18-.81.1-.63.13-.9a2.37,2.37,0,0,1,.11-.57.35.35,0,0,1,.35-.2c.16,0,.48,0,1,.07s1,.06,1.72.06h6.78q1,0,1.71-.06c.47,0,.8-.07,1-.07a.39.39,0,0,1,.36.2,3.18,3.18,0,0,1,.1.57,6.87,6.87,0,0,0,.14.9c0,.27.1.54.16.81s.16.58.28.93l-.28.1a.88.88,0,0,1-.29.06.39.39,0,0,1-.36-.2,8,8,0,0,0-.51-1,2.66,2.66,0,0,0-.57-.66,2.19,2.19,0,0,0-.75-.37,3.49,3.49,0,0,0-1-.13Z" style="fill:#231f20"></path><path d="M727,89.56a1.79,1.79,0,0,0,0,.36.44.44,0,0,0,.18.25,1.1,1.1,0,0,0,.42.19,5.48,5.48,0,0,0,.74.14c.14,0,.22.16.22.38,0,0,0,.11,0,.2a.73.73,0,0,1,0,.22L727,91.22l-1.42,0-1.43,0-1.49.08a.51.51,0,0,1-.05-.22v-.2c0-.24.08-.36.22-.38a5.48,5.48,0,0,0,.74-.14,1,1,0,0,0,.41-.19.42.42,0,0,0,.17-.25,1.2,1.2,0,0,0,0-.36v-11a1.25,1.25,0,0,0,0-.36.45.45,0,0,0-.17-.25,1.12,1.12,0,0,0-.41-.19,5.48,5.48,0,0,0-.74-.14.35.35,0,0,1-.22-.38V77a.7.7,0,0,1,.05-.25l1.49.08,1.43,0,1.42,0,1.51-.08a1,1,0,0,1,0,.25c0,.08,0,.15,0,.19a.35.35,0,0,1-.22.38,5.48,5.48,0,0,0-.74.14,1.27,1.27,0,0,0-.42.19.47.47,0,0,0-.18.25,1.86,1.86,0,0,0,0,.36Z" style="fill:#231f20"></path><path d="M745.25,86.39V78.58a.73.73,0,0,0-.33-.68,3.07,3.07,0,0,0-1.17-.31c-.19,0-.28-.18-.28-.42V77a.6.6,0,0,1,0-.22,10.25,10.25,0,0,0,1.08.09c.35,0,.76,0,1.23,0s.87,0,1.21,0a8.42,8.42,0,0,0,1-.09,2.07,2.07,0,0,1,0,.22c0,.08,0,.14,0,.18q0,.38-.27.42a2.24,2.24,0,0,0-1,.31.75.75,0,0,0-.26.63V91.41l-.3,0H746a.8.8,0,0,1-.33-.08,1.15,1.15,0,0,1-.38-.32l-8.67-11v9.51a1.71,1.71,0,0,0,0,.36.37.37,0,0,0,.17.24,1.39,1.39,0,0,0,.42.18l.74.16a.5.5,0,0,1,.19.1.49.49,0,0,1,.07.32,2,2,0,0,1,0,.38l-1-.08c-.33,0-.7,0-1.13,0s-.83,0-1.22,0l-1.07.08a.65.65,0,0,1,0-.2v-.18a.48.48,0,0,1,.08-.31.34.34,0,0,1,.18-.11,2.46,2.46,0,0,0,1.06-.33.69.69,0,0,0,.26-.61V78.42a.62.62,0,0,0-.23-.53,2.25,2.25,0,0,0-1-.3c-.18,0-.27-.18-.27-.42v-.1a.27.27,0,0,1,0-.12l0-.18.59,0c.19,0,.38,0,.57,0s.65,0,1,0h.81a3.56,3.56,0,0,1,.83.06.88.88,0,0,1,.36.21Z" style="fill:#231f20"></path><path d="M764.76,91.08l-1,.15-1,.12c-.33,0-.69.06-1.08.08l-1.35,0a10,10,0,0,1-3.43-.53,6,6,0,0,1-2.37-1.51,6.37,6.37,0,0,1-1.38-2.34,9.64,9.64,0,0,1-.45-3,8.33,8.33,0,0,1,.44-2.62A7.2,7.2,0,0,1,754.55,79a7,7,0,0,1,2.28-1.74,7.28,7.28,0,0,1,3.23-.67,17.79,17.79,0,0,1,2.6.19,22.51,22.51,0,0,1,2.52.49c0,.4.09.9.18,1.52a14.7,14.7,0,0,0,.37,1.8l-.26.06-.24,0a.85.85,0,0,1-.3,0,.34.34,0,0,1-.16-.23,3.28,3.28,0,0,0-1.52-2.08,5.49,5.49,0,0,0-2.62-.56,5.14,5.14,0,0,0-2.1.4A3.91,3.91,0,0,0,757,79.36a5.34,5.34,0,0,0-.92,1.83,8.13,8.13,0,0,0-.32,2.41,9.59,9.59,0,0,0,.35,2.7,6.25,6.25,0,0,0,1,2.12,4.73,4.73,0,0,0,1.69,1.39,5.09,5.09,0,0,0,2.3.5,6.68,6.68,0,0,0,.82,0,5.66,5.66,0,0,0,.76-.15V86.94a1,1,0,0,0-.33-.83,3,3,0,0,0-1.17-.34.37.37,0,0,1-.24-.18.74.74,0,0,1-.06-.28,1.72,1.72,0,0,1,0-.2.47.47,0,0,1,0-.19l.74,0,.83,0,.83,0,.69,0,.68,0,.79,0,.8,0,.65,0a.54.54,0,0,1,0,.22v.17a.51.51,0,0,1-.08.3.49.49,0,0,1-.18.14,2.28,2.28,0,0,0-1,.29.74.74,0,0,0-.28.66v3.83a.47.47,0,0,1-.11.33A1.24,1.24,0,0,1,764.76,91.08Z" style="fill:#231f20"></path><path d="M257.89,32.48a53.94,53.94,0,0,1,.22,5.43,31,31,0,0,1-1.29,7.92A19.41,19.41,0,0,1,252.18,54q-6.85,7.35-18.84,7.35-14.57,0-23-7.14a23.54,23.54,0,0,1-8.42-18.77q0-11.64,8.49-18.84T233,9.43a46.93,46.93,0,0,1,10.21,1.07,31.75,31.75,0,0,1,8.06,2.78l.15,12.28h-.57a17.69,17.69,0,0,0-4.07-7.64q-5.14-5.49-13.85-5.5a17.66,17.66,0,0,0-14.06,6.21q-5.28,6.21-5.28,16.49t5.49,16.64q5.56,6.42,15.28,6.63,10.49,0,16.7-6.71t6.21-18.2v-1Z" style="fill:#231f20;fill-rule:evenodd"></path><path d="M274,18h-2.88V54.41a3.83,3.83,0,0,0,2,3.43,4.24,4.24,0,0,0,2,.5h.81V59h-19v-.63h.82a3.79,3.79,0,0,0,3.43-1.93,4.42,4.42,0,0,0,.56-1.94V19.8a3.8,3.8,0,0,0-1.25-2.74,3.64,3.64,0,0,0-2.74-1.19h-.82v-.62h21.43a18.89,18.89,0,0,1,10.24,2.62A9.24,9.24,0,0,1,292,21.55a10.91,10.91,0,0,1,1.25,5.31,13.74,13.74,0,0,1-1.06,5.44,10.4,10.4,0,0,1-3.44,4.37A11,11,0,0,1,283,38.92c2.41.79,4.54,2.62,6.37,5.49q6.75,10.81,10,12.87a8,8,0,0,0,4.06,1.06V59h-6.12a23.8,23.8,0,0,1-8.87-1.44,12.63,12.63,0,0,1-5.81-5.06c-.75-1.21-1.7-3-2.87-5.43s-1.93-4.21-2.31-5.25q-1.68-3.75-4.25-4.18V37h1.94A7.66,7.66,0,0,0,280,35.29,8.73,8.73,0,0,0,283,29.8a11.45,11.45,0,0,0,.25-2.06c0-3.42-.69-5.87-2.06-7.37A7,7,0,0,0,275.84,18Z" style="fill:#231f20;fill-rule:evenodd"></path><path d="M304.13,58.34a3.74,3.74,0,0,0,2.75-1.12,4.08,4.08,0,0,0,1.25-2.81V19.62a3.92,3.92,0,0,0-2.06-3.25,4.12,4.12,0,0,0-1.94-.5h-.81v-.62h23.92a26.75,26.75,0,0,0,4.25-.38,17.44,17.44,0,0,0,3.25-.75V25.05h-.63V24.3a6.08,6.08,0,0,0-1.69-4.5A6.15,6.15,0,0,0,328,17.93H317.5V36.11h8.24a5.41,5.41,0,0,0,3.81-1.56,5.33,5.33,0,0,0,1.5-3.82v-.56h.62V44.6h-.62v-.5a5,5,0,0,0-2.5-4.62,6.1,6.1,0,0,0-2.75-.75h-8.3V56.28h8.18a11.29,11.29,0,0,0,7.62-2.62,15.42,15.42,0,0,0,4.62-7.44h.63L335.67,59H303.32v-.63Z" style="fill:#231f20;fill-rule:evenodd"></path><path d="M340.64,53.16a14.5,14.5,0,0,1,1.94-7.68h.56a8.22,8.22,0,0,0-.06,1A10.66,10.66,0,0,0,346.14,54a11.32,11.32,0,0,0,8.49,3.19,9.65,9.65,0,0,0,6.5-2,6.33,6.33,0,0,0,2.37-5.06q0-3.69-5-6.43l-10.87-7.19A11.91,11.91,0,0,1,343,32.05a11.92,11.92,0,0,1-1.37-5.44q0-5.87,3.69-9a14.18,14.18,0,0,1,9.55-3.19,71,71,0,0,1,8.5.63h3.93l-.81,9.18h-.63A6.29,6.29,0,0,0,363.38,19,9.59,9.59,0,0,0,357,17q-4.87,0-7.06,3a5.13,5.13,0,0,0-1.12,3.25c0,2,1.45,3.85,4.37,5.56l11.93,7.74a10.41,10.41,0,0,1,5.62,9.56q0,6.69-4.56,10.24t-12,3.5a29.34,29.34,0,0,1-7.87-1A11.92,11.92,0,0,1,341.08,56,8.37,8.37,0,0,1,340.64,53.16Z" style="fill:#231f20;fill-rule:evenodd"></path><path d="M396.93,59.78q-12,0-18.92-6.06t-6.87-16.61q0-10.56,6.8-16.62t18.68-6.12a33.45,33.45,0,0,1,15.55,3.37l.13,10.75h-.5Q408.61,17,397.24,17a14.18,14.18,0,0,0-11.68,5.38q-4.24,5.31-4.24,14.55t4.06,14.68a13.73,13.73,0,0,0,11.11,5.62q7.25,0,11.06-3.63t5.37-12.86h.5L414,51.47Q409,59.84,396.93,59.78Z" style="fill:#231f20;fill-rule:evenodd"></path><path d="M458.08,58.34h.56V59H438.72v-.63h.56a2.36,2.36,0,0,0,2-.81,2.68,2.68,0,0,0,.69-1.62,4,4,0,0,0-.31-1.5l-3.06-7.69H424l-3.25,7.69a4.29,4.29,0,0,0-.31,1.56,2.82,2.82,0,0,0,.62,1.56,2.65,2.65,0,0,0,2.13.81h.5V59H410.3v-.63h.57a5.52,5.52,0,0,0,2.87-.87,6.7,6.7,0,0,0,2.37-2.63l14.43-32.66Q433.48,16,433.66,14h.56l18.55,40.72a7.11,7.11,0,0,0,2.38,2.75A5.59,5.59,0,0,0,458.08,58.34ZM425,44.1h12.49l-6-15.36Z" style="fill:#231f20;fill-rule:evenodd"></path><path d="M473.76,17.81V54.47A4,4,0,0,0,475,57.22a3.93,3.93,0,0,0,2.81,1.12h.75l.06.63h-19v-.63h.81a3.67,3.67,0,0,0,2.69-1.12,4,4,0,0,0,1.31-2.69V17.81H456a6.2,6.2,0,0,0-4.56,1.81,6.3,6.3,0,0,0-1.69,4.56v.75h-.62V14.06a15.31,15.31,0,0,0,3.12.75,26.66,26.66,0,0,0,4.25.37h25.17a25.79,25.79,0,0,0,5-.5,20.43,20.43,0,0,0,2.37-.62V24.93h-.62v-.75a6,6,0,0,0-6.25-6.37Z" style="fill:#231f20;fill-rule:evenodd"></path><path d="M562.35,32.48c.14,1.43.22,3.24.22,5.43a31,31,0,0,1-1.29,7.92A19.41,19.41,0,0,1,556.64,54q-6.85,7.35-18.84,7.35-14.56,0-23-7.14a23.54,23.54,0,0,1-8.42-18.77q0-11.64,8.49-18.84t22.56-7.21a46.93,46.93,0,0,1,10.21,1.07,31.75,31.75,0,0,1,8.06,2.78l.15,12.28h-.58a17.57,17.57,0,0,0-4.06-7.64q-5.15-5.49-13.85-5.5a17.64,17.64,0,0,0-14.06,6.21Q518,24.84,518,35.12t5.5,16.64q5.57,6.42,15.28,6.63,10.49,0,16.7-6.71t6.21-18.2v-1Z" style="fill:#231f20;fill-rule:evenodd"></path><path d="M601.89,58.34h.56V59H582.52v-.63h.57a2.35,2.35,0,0,0,2-.81,2.68,2.68,0,0,0,.69-1.62,3.84,3.84,0,0,0-.31-1.5l-3.06-7.69H567.78l-3.24,7.69a4.31,4.31,0,0,0-.32,1.56,2.77,2.77,0,0,0,.63,1.56,2.62,2.62,0,0,0,2.12.81h.5V59H554.11v-.63h.56a5.5,5.5,0,0,0,2.87-.87,6.63,6.63,0,0,0,2.37-2.63l14.43-32.66Q577.28,16,577.46,14H578l18.55,40.72A7,7,0,0,0,599,57.47,5.62,5.62,0,0,0,601.89,58.34Zm-33-14.24h12.49l-6.06-15.36Z" style="fill:#231f20;fill-rule:evenodd"></path><path d="M636.35,33.17a12.17,12.17,0,0,1-7.87,6.75,10.11,10.11,0,0,1-3.12.56,14.08,14.08,0,0,1-7.94-2.31v-.63A9.28,9.28,0,0,0,625,34.48a10.08,10.08,0,0,0,2.56-7.18q0-6.81-4.75-8.81a8.63,8.63,0,0,0-3.31-.62H615.3V54.41a3.81,3.81,0,0,0,1.19,2.81,3.93,3.93,0,0,0,2.81,1.12h.81V59h-19v-.63h.81a3.73,3.73,0,0,0,2.75-1.12,4.08,4.08,0,0,0,1.25-2.81V19.49a3.87,3.87,0,0,0-2.12-3.12,3.78,3.78,0,0,0-1.88-.5h-.81v-.62H622q11.31,0,14.49,7.18a13.48,13.48,0,0,1,1,5.31A13.37,13.37,0,0,1,636.35,33.17Z" style="fill:#231f20;fill-rule:evenodd"></path><path d="M636.5,58.34a3.72,3.72,0,0,0,2.74-1.12,4.08,4.08,0,0,0,1.25-2.81V19.74A3.87,3.87,0,0,0,639.24,17a3.76,3.76,0,0,0-2.74-1.12h-.82v-.62h19l-.06.62h-.75A4,4,0,0,0,651.05,17a3.66,3.66,0,0,0-1.19,2.75V54.41a3.85,3.85,0,0,0,1.19,2.81,3.94,3.94,0,0,0,2.81,1.12h.75l.06.63h-19v-.63Z" style="fill:#231f20;fill-rule:evenodd"></path><path d="M680.51,17.81V54.47a3.94,3.94,0,0,0,4,3.87h.75l.06.63h-19v-.63h.81a3.65,3.65,0,0,0,2.68-1.12,4,4,0,0,0,1.31-2.69V17.81h-8.43a6,6,0,0,0-6.24,6.37v.75h-.63V14.06a15.64,15.64,0,0,0,3.13.75,26.54,26.54,0,0,0,4.24.37h25.17a25.79,25.79,0,0,0,5-.5,20.43,20.43,0,0,0,2.37-.62V24.93h-.62v-.75a6,6,0,0,0-6.25-6.37Z" style="fill:#231f20;fill-rule:evenodd"></path><path d="M734.08,58.34h.56V59H714.72v-.63h.56a2.38,2.38,0,0,0,2-.81,2.72,2.72,0,0,0,.68-1.62,3.84,3.84,0,0,0-.31-1.5l-3.06-7.69H700l-3.24,7.69a4.31,4.31,0,0,0-.32,1.56,2.77,2.77,0,0,0,.63,1.56,2.64,2.64,0,0,0,2.12.81h.5V59H686.3v-.63h.56a5.5,5.5,0,0,0,2.87-.87,6.72,6.72,0,0,0,2.38-2.63l14.42-32.66Q709.47,16,709.66,14h.56l18.55,40.72a7,7,0,0,0,2.37,2.75A5.62,5.62,0,0,0,734.08,58.34ZM701,44.1h12.49l-6.06-15.36Z" style="fill:#231f20;fill-rule:evenodd"></path><path d="M734.38,58.34a3.74,3.74,0,0,0,2.75-1.12,4.07,4.07,0,0,0,1.24-2.81V19.8a3.83,3.83,0,0,0-1.24-2.74,3.66,3.66,0,0,0-2.75-1.19h-.81v-.62h19l-.06.62h-.75a3.85,3.85,0,0,0-2.81,1.19,3.64,3.64,0,0,0-1.19,2.74V56.28h8.19a11.28,11.28,0,0,0,7.61-2.62,15.36,15.36,0,0,0,4.63-7.44h.62L765.92,59H733.57v-.63Z" style="fill:#231f20;fill-rule:evenodd"></path><polygon points="79.57 21.92 139.01 6.31 72.21 73.03 79.57 21.92" style="fill-rule:evenodd;fill:url(#linear-gradient)"></polygon><polygon points="74.51 74.56 134.56 84.35 111.44 57.43 74.51 74.56" style="fill-rule:evenodd;fill:url(#linear-gradient-2)"></polygon><polygon points="109.67 55.41 77.5 71.45 92.43 56.15 109.67 55.41" style="fill-rule:evenodd;fill:url(#linear-gradient-3)"></polygon><polygon points="117.56 61.67 145.11 93.5 168.74 90.1 117.56 61.67" style="fill-rule:evenodd;fill:url(#linear-gradient-4)"></polygon><path d="M140.78,6.79s-47.45,46.08-46,46S117,53.85,117,53.85Z" style="fill-rule:evenodd;fill:url(#linear-gradient-5)"></path><polygon points="154.56 0 142.54 24.23 153.96 19.76 154.56 0" style="fill-rule:evenodd;fill:url(#linear-gradient-6)"></polygon><polygon points="152.27 0.47 140.85 23.93 136.09 18.74 152.27 0.47" style="fill-rule:evenodd;fill:url(#linear-gradient-7)"></polygon><polygon points="135.38 21.13 125.26 42.76 156.71 51.37 135.38 21.13" style="fill-rule:evenodd;fill:url(#linear-gradient-8)"></polygon><polygon points="162.88 10.46 164.46 3.95 156.35 8.6 162.88 10.46" style="fill-rule:evenodd;fill:url(#linear-gradient-9)"></polygon><polygon points="155.5 9.88 167.5 14.22 155.35 19.3 155.5 9.88" style="fill-rule:evenodd;fill:url(#linear-gradient-10)"></polygon><polygon points="168.23 16.49 178.37 42.63 171.67 42.49 168.23 16.49" style="fill-rule:evenodd;fill:url(#linear-gradient-11)"></polygon><polygon points="168.51 24.64 167.04 15.99 141.34 27.12 168.51 24.64" style="fill-rule:evenodd;fill:url(#linear-gradient-12)"></polygon><path d="M160.87,26.36l8.29,5.25,2,19.83s-15.38-2.76-15.79-3.21S142,27.67,142,27.67Z" style="fill-rule:evenodd;fill:url(#linear-gradient-13)"></path><polygon points="173.73 43.34 178.36 43.77 172.67 49.91 173.73 43.34" style="fill-rule:evenodd;fill:url(#linear-gradient-14)"></polygon><polygon points="157.6 50.78 163.44 58.95 170.28 54.35 157.6 50.78" style="fill-rule:evenodd;fill:url(#linear-gradient-15)"></polygon><polygon points="146.05 94.58 160.42 100.19 153.93 93.47 146.05 94.58" style="fill-rule:evenodd;fill:url(#linear-gradient-16)"></polygon><polygon points="168.44 90.55 168.42 98.37 163.1 91.5 168.44 90.55" style="fill-rule:evenodd;fill:url(#linear-gradient-17)"></polygon><polygon points="162.08 91.89 167.42 98.44 154.57 93.25 162.08 91.89" style="fill-rule:evenodd;fill:url(#linear-gradient-18)"></polygon><polygon points="76.48 21.92 0.81 63.12 69.12 73.03 76.48 21.92" style="fill-rule:evenodd;fill:url(#linear-gradient-19)"></polygon><path d="M768.79,23.37a8.53,8.53,0,0,1,.58-3.16A7.51,7.51,0,0,1,771,17.63a7.62,7.62,0,0,1,2.56-1.75,8.58,8.58,0,0,1,3.35-.63,8.83,8.83,0,0,1,3.42.63,7.51,7.51,0,0,1,2.58,1.75,7.34,7.34,0,0,1,1.62,2.58,9.16,9.16,0,0,1,.54,3.16,8.46,8.46,0,0,1-.59,3.17,8.17,8.17,0,0,1-1.65,2.61,8,8,0,0,1-2.56,1.74,9.11,9.11,0,0,1-6.71,0A7.74,7.74,0,0,1,771,29.15a7.64,7.64,0,0,1-1.63-2.61A8.66,8.66,0,0,1,768.79,23.37ZM777,30.21a7.08,7.08,0,0,0,2.79-.53,6.24,6.24,0,0,0,2.09-1.44,6.1,6.1,0,0,0,1.33-2.14,7.42,7.42,0,0,0,.46-2.65,7.54,7.54,0,0,0-.48-2.71,6.55,6.55,0,0,0-1.39-2.19,6.68,6.68,0,0,0-2.15-1.45,7.37,7.37,0,0,0-5.49,0,6.1,6.1,0,0,0-3.4,3.57,7.5,7.5,0,0,0-.46,2.65,8.11,8.11,0,0,0,.42,2.61,6.32,6.32,0,0,0,1.26,2.18A6,6,0,0,0,774,29.63,6.9,6.9,0,0,0,777,30.21Zm4.77-2.83a3.47,3.47,0,0,1-.33.49l-.37.44h-.36a1.58,1.58,0,0,1-.92-.27,2.49,2.49,0,0,1-.71-.7l-2.34-3.44H776v3a.47.47,0,0,0,.16.33,1.46,1.46,0,0,0,.73.24c.17.06.26.15.26.26a1.48,1.48,0,0,1-.09.45,8.33,8.33,0,0,0-.94-.05h-2a9.76,9.76,0,0,0-1,.05.51.51,0,0,1,0-.22v-.23a.24.24,0,0,1,.22-.26c.59-.09.88-.28.88-.57V19.57a.35.35,0,0,0-.18-.33,1.88,1.88,0,0,0-.66-.16c-.2,0-.31-.08-.31-.26a1.37,1.37,0,0,1,.09-.44c.29,0,.64.05,1,.07l1,0h1.68a5.84,5.84,0,0,1,2.72.59,2.09,2.09,0,0,1,1.12,2,2.25,2.25,0,0,1-.68,1.59,3.31,3.31,0,0,1-1.57.93l1.94,2.86a1.89,1.89,0,0,0,.64.62A3.31,3.31,0,0,0,781.72,27.38ZM776.51,23q2.25,0,2.25-1.77a1.71,1.71,0,0,0-.5-1.34,2.67,2.67,0,0,0-1.79-.47H776V23Z" style="fill:#231f20"></path></svg> 